<?xml version="1.0" encoding="UTF-8" standalone="no"?>
<!-- Created with Inkscape (http://www.inkscape.org/) -->

<svg
   width="200mm"
   height="80mm"
   viewBox="0 0 200 80"
   version="1.1"
   id="svg1"
   inkscape:export-filename="logo.png"
   inkscape:export-xdpi="101.6"
   inkscape:export-ydpi="101.6"
   inkscape:version="1.3.2 (091e20e, 2023-11-25)"
   sodipodi:docname="logo.svg"
   xmlns:inkscape="http://www.inkscape.org/namespaces/inkscape"
   xmlns:sodipodi="http://sodipodi.sourceforge.net/DTD/sodipodi-0.dtd"
   xmlns="http://www.w3.org/2000/svg"
   xmlns:svg="http://www.w3.org/2000/svg">
  <sodipodi:namedview
     id="namedview1"
     pagecolor="#ffffff"
     bordercolor="#000000"
     borderopacity="0.25"
     inkscape:showpageshadow="2"
     inkscape:pageopacity="0.0"
     inkscape:pagecheckerboard="0"
     inkscape:deskcolor="#d1d1d1"
     inkscape:document-units="mm"
     inkscape:zoom="0.71504177"
     inkscape:cx="385.29218"
     inkscape:cy="401.37515"
     inkscape:window-width="1440"
     inkscape:window-height="847"
     inkscape:window-x="0"
     inkscape:window-y="25"
     inkscape:window-maximized="0"
     inkscape:current-layer="layer1" />
  <defs
     id="defs1">
    <rect
       x="495.0777"
       y="538.039"
       width="173.89093"
       height="53.190166"
       id="rect5" />
    <rect
       x="66.279533"
       y="900.98743"
       width="515.73761"
       height="132.55907"
       id="rect6" />
    <rect
       x="66.279533"
       y="900.98743"
       width="515.73761"
       height="132.55907"
       id="rect6-5" />
  </defs>
  <g
     inkscape:label="Layer 1"
     inkscape:groupmode="layer"
     id="layer1">
    <g
       id="g2">
      <g
         id="g1">
        <circle
           style="fill:#389826;fill-opacity:1;stroke-width:0.252153"
           id="path1-90"
           cx="33.917076"
           cy="40.071098"
           r="24.781096" />
        <g
           id="g5"
           transform="matrix(0.66082923,0,0,0.66082923,9.1359799,-61.117009)">
          <circle
             style="fill:#cb3c33;fill-opacity:1;stroke-width:0.38157"
             id="path1-9-5"
             cx="87.5"
             cy="153.12292"
             r="37.5" />
          <circle
             style="fill:#9558b2;fill-opacity:1;stroke-width:0.38157"
             id="path1-2-6"
             cx="237.5"
             cy="153.12292"
             r="37.5" />
        </g>
        <path
           d="m 496.57213,544.13594 v -0.876 h 5.82599 v 0.876 z m 0,2.28 v -0.876 h 5.82599 v 0.876 z m 5.586,-2.28 v -0.876 h 4.2 v 0.876 z m 0,2.28 v -0.876 h 4.2 v 0.876 z m 2.586,-5.232 3.264,3.654 -3.264,3.654 -0.744,-0.636 0.75,-0.816 q 0.138,-0.162 0.3,-0.318 0.168,-0.156 0.438,-0.306 l 0.618,-0.876 0.642,-0.702 -0.642,-0.702 -0.618,-0.876 q -0.27,-0.15 -0.438,-0.306 -0.162,-0.162 -0.3,-0.318 l -0.75,-0.816 z"
           id="text5"
           style="font-size:12px;font-family:'Fira Code';-inkscape-font-specification:'Fira Code, Normal';white-space:pre;fill:#4063d8;stroke-width:3.02362"
           transform="matrix(4.2453467,0,0,4.2453467,-2015.875,-2271.8637)"
           aria-label="=&gt;&#10;" />
      </g>
      <g
         id="g6"
         style="fill:#4063d8;fill-opacity:1"
         transform="matrix(0.64019786,0,0,0.64019786,11.46672,-59.798362)">
        <path
           d="m 68.487297,912.92916 v -11.172 h 3.006 v 0.87 h -2.052 v 9.444 h 2.052 v 0.858 z"
           id="text6"
           style="font-size:12px;font-family:'Fira Code';-inkscape-font-specification:'Fira Code, Normal';white-space:pre;stroke-width:3.02362"
           transform="matrix(10.998168,0,0,10.998168,-771.14601,-9823.1147)"
           aria-label="[&#10;" />
        <path
           d="m 68.487297,912.92916 v -11.172 h 3.006 v 0.87 h -2.052 v 9.444 h 2.052 v 0.858 z"
           id="text6-5"
           style="font-size:12px;font-family:'Fira Code';-inkscape-font-specification:'Fira Code, Normal';white-space:pre;stroke-width:3.02362"
           transform="matrix(-10.998168,0,0,10.998168,1047.727,-9823.1147)"
           aria-label="[&#10;" />
      </g>
    </g>
  </g>
</svg>
